<svg xmlns="http://www.w3.org/2000/svg" viewBox="0 0 32 32">
  <rect width="32" height="32" rx="6" fill="#0c0e13"/>
  <rect x="4" y="4" width="5" height="5" rx="1" fill="#00b4d8"/>
  <rect x="23" y="4" width="5" height="5" rx="1" fill="#00b4d8"/>
  <rect x="10.5" y="10.5" width="5" height="5" rx="1" fill="#00b4d8"/>
  <rect x="4" y="10.5" width="5" height="5" rx="1" fill="#00b4d8" opacity="0.15"/>
  <rect x="16.5" y="10.5" width="5" height="5" rx="1" fill="#00b4d8" opacity="0.15"/>
  <rect x="23" y="10.5" width="5" height="5" rx="1" fill="#00b4d8" opacity="0.15"/>
  <rect x="16.5" y="17" width="5" height="5" rx="1" fill="#00b4d8"/>
  <rect x="4" y="17" width="5" height="5" rx="1" fill="#00b4d8" opacity="0.15"/>
  <rect x="10.5" y="17" width="5" height="5" rx="1" fill="#00b4d8" opacity="0.15"/>
  <rect x="23" y="17" width="5" height="5" rx="1" fill="#00b4d8" opacity="0.15"/>
  <rect x="4" y="23" width="5" height="5" rx="1" fill="#00b4d8"/>
  <rect x="23" y="23" width="5" height="5" rx="1" fill="#00b4d8"/>
</svg>
