<svg xmlns="http://www.w3.org/2000/svg" viewBox="0 0 33 33" fill="none">
  <rect x="0" y="0" width="6" height="6" rx="1" fill="#2563EB"/>
  <rect x="9" y="0" width="6" height="6" rx="1" fill="#2563EB" opacity="0.3"/>
  <rect x="18" y="0" width="6" height="6" rx="1" fill="#2563EB" opacity="0.3"/>
  <rect x="27" y="0" width="6" height="6" rx="1" fill="#2563EB"/>

  <rect x="0" y="9" width="6" height="6" rx="1" fill="#2563EB" opacity="0.3"/>
  <rect x="9" y="9" width="6" height="6" rx="1" fill="#2563EB"/>
  <rect x="18" y="9" width="6" height="6" rx="1" fill="#2563EB" opacity="0.3"/>
  <rect x="27" y="9" width="6" height="6" rx="1" fill="#2563EB" opacity="0.3"/>

  <rect x="0" y="18" width="6" height="6" rx="1" fill="#2563EB" opacity="0.3"/>
  <rect x="9" y="18" width="6" height="6" rx="1" fill="#2563EB" opacity="0.3"/>
  <rect x="18" y="18" width="6" height="6" rx="1" fill="#2563EB"/>
  <rect x="27" y="18" width="6" height="6" rx="1" fill="#2563EB" opacity="0.3"/>

  <rect x="0" y="27" width="6" height="6" rx="1" fill="#2563EB"/>
  <rect x="9" y="27" width="6" height="6" rx="1" fill="#2563EB" opacity="0.3"/>
  <rect x="18" y="27" width="6" height="6" rx="1" fill="#2563EB" opacity="0.3"/>
  <rect x="27" y="27" width="6" height="6" rx="1" fill="#2563EB"/>
</svg>
